<svg width="108" height="167" viewBox="0 0 108 167" fill="none" xmlns="http://www.w3.org/2000/svg">
<path d="M54 119.286C62.5903 119.276 70.8262 115.502 76.9004 108.793C82.9746 102.084 86.3911 92.9879 86.4 83.5V35.7857C86.4 26.2948 82.9864 17.1925 76.9103 10.4814C70.8341 3.77027 62.593 0 54 0C45.407 0 37.1659 3.77027 31.0897 10.4814C25.0136 17.1925 21.6 26.2948 21.6 35.7857V83.5C21.6089 92.9879 25.0254 102.084 31.0996 108.793C37.1739 115.502 45.4097 119.276 54 119.286ZM32.4 35.7857C32.4 29.4584 34.6757 23.3902 38.7265 18.9162C42.7773 14.4421 48.2713 11.9286 54 11.9286C59.7287 11.9286 65.2227 14.4421 69.2735 18.9162C73.3243 23.3902 75.6 29.4584 75.6 35.7857V83.5C75.6 89.8273 73.3243 95.8955 69.2735 100.37C65.2227 104.844 59.7287 107.357 54 107.357C48.2713 107.357 42.7773 104.844 38.7265 100.37C34.6757 95.8955 32.4 89.8273 32.4 83.5V35.7857ZM59.4 142.845V161.036C59.4 162.618 58.8311 164.135 57.8184 165.253C56.8057 166.372 55.4322 167 54 167C52.5678 167 51.1943 166.372 50.1816 165.253C49.1689 164.135 48.6 162.618 48.6 161.036V142.845C35.2866 141.348 22.9484 134.453 13.9714 123.491C4.99447 112.529 0.0164438 98.2806 0 83.5C0 81.9182 0.568928 80.4011 1.58162 79.2826C2.59432 78.1641 3.96783 77.5357 5.4 77.5357C6.83217 77.5357 8.20568 78.1641 9.21838 79.2826C10.2311 80.4011 10.8 81.9182 10.8 83.5C10.8 96.1546 15.3514 108.291 23.453 117.239C31.5546 126.187 42.5426 131.214 54 131.214C65.4574 131.214 76.4454 126.187 84.547 117.239C92.6486 108.291 97.2 96.1546 97.2 83.5C97.2 81.9182 97.7689 80.4011 98.7816 79.2826C99.7943 78.1641 101.168 77.5357 102.6 77.5357C104.032 77.5357 105.406 78.1641 106.418 79.2826C107.431 80.4011 108 81.9182 108 83.5C107.984 98.2806 103.006 112.529 94.0286 123.491C85.0516 134.453 72.7134 141.348 59.4 142.845Z" fill="#699BF7"/>
</svg>
